<svg xmlns="http://www.w3.org/2000/svg" viewBox="0 0 512 512" width="16" height="16" style="fill:#FFFFFF;">
  <path d="M256 8C119 8 8 119 8 256s111 248 248 248c47.5 0 91.9-13.9 129.3-37.4 22.6 22.7 56.4 37.4 91.7 37.4 8.8 0 16-7.2 16-16v-88c0-8.8-7.2-16-16-16-21.5 0-41.8-7.8-57.6-21.1-14.8 9.5-31.9 15.6-50.8 15.6-72.8 0-132-59.2-132-132s59.2-132 132-132 132 59.2 132 132c0 22.6-6.1 44.3-16.7 63.7 14.4 4.7 27.8 12.6 38.8 22.6 16.5 15.5 26.8 37.7 26.8 60.7v88c0 17.7-14.3 32-32 32H256c-141.4 0-256-114.6-256-256S114.6 8 256 8z"/>
</svg>
