<svg xmlns="http://www.w3.org/2000/svg" viewBox="0 0 448 512" style="fill:#FFFFFF;">
  <path 
    d="M135.2 17.7C140.1 7 150.6 0 162.3 0h123.5c11.7 0 22.2 7 27.1 17.7L320 32h80c17.7 0 32 14.3 32 32s-14.3 32-32 32h-16v336c0 44.2-35.8 80-80 80H144c-44.2 0-80-35.8-80-80V96H48c-17.7 0-32-14.3-32-32s14.3-32 32-32h80l7.2-14.3zM112 96v336c0 8.8 7.2 16 16 16h192c8.8 0 16-7.2 16-16V96H112zm48 64c8.8 0 16 7.2 16 16v192c0 8.8-7.2 16-16 16s-16-7.2-16-16V176c0-8.8 7.2-16 16-16zm80 0c8.8 0 16 7.2 16 16v192c0 8.8-7.2 16-16 16s-16-7.2-16-16V176c0-8.8 7.2-16 16-16zm80 0c8.8 0 16 7.2 16 16v192c0 8.8-7.2 16-16 16s-16-7.2-16-16V176c0-8.8 7.2-16 16-16z"/>
</svg>
